<svg
    viewBox="0 0 1024 1024"
    xmlns="http://www.w3.org/2000/svg"
    width="24"
    height="25"
 >
    <path
        fill="#e7f5fe"
        d="M128 341.333h768v341.333H128V341.333z"
    ></path>
    <path
        fill="rgba(20,150,215,1)"
        d="M896 768H597.333c-25.6 0-42.667-17.067-42.667-42.667s17.067-42.667 42.667-42.667h256V341.333h-256c-25.6 0-42.667-17.067-42.667-42.667s17.067-42.667 42.667-42.667H896c25.6 0 42.667 17.067 42.667 42.667v426.667C938.667 750.933 921.6 768 896 768zm-640 0H128c-25.6 0-42.667-17.067-42.667-42.667V298.666c0-25.6 17.067-42.667 42.667-42.667h128c25.6 0 42.667 17.067 42.667 42.667S281.6 341.333 256 341.333h-85.333v341.333H256c25.6 0 42.667 17.067 42.667 42.667S281.6 768 256 768z"
    ></path>
    <path
        fill="#ffffff"
        d="M448 170.667v682.667zM341.333 853.333h213.333zm0-682.666h213.333z"
    ></path>
    <path
        fill="rgba(20,150,215,1)"
        d="M554.667 896H341.334c-25.6 0-42.667-17.067-42.667-42.667s17.067-42.667 42.667-42.667h64V213.333h-64c-25.6 0-42.667-17.067-42.667-42.667s17.067-42.667 42.667-42.667h213.333c25.6 0 42.667 17.067 42.667 42.667s-17.067 42.667-42.667 42.667h-64v597.333h64c25.6 0 42.667 17.067 42.667 42.667S580.267 896 554.667 896z"
    ></path>
</svg>