<svg
    viewBox="0 0 1024 1024"
    xmlns="http://www.w3.org/2000/svg"
    width="24"
    height="25"
>
    <path
        fill="#e4fafb"
        d="M213.333 85.333h597.333c46.933 0 85.333 38.4 85.333 85.333v426.667c0 46.933-38.4 85.333-85.333 85.333H345.599l-217.6 170.667V170.666c0-46.933 38.4-85.333 85.333-85.333zm298.667 768h341.333z"
    ></path>
    <path
        fill="#34b8ca"
        d="M128 896c-4.267 0-12.8 0-17.067-4.267-17.067-8.533-25.6-21.333-25.6-38.4V170.666c0-72.533 55.467-128 128-128h597.333c72.533 0 128 55.467 128 128v426.667c0 72.533-55.467 128-128 128h-448l-204.8 162.133c-12.8 4.267-21.333 8.533-29.867 8.533zm85.333-768c-25.6 0-42.667 17.067-42.667 42.667V768l149.333-115.2c8.533-8.533 17.067-12.8 25.6-12.8h465.067c25.6 0 42.667-17.067 42.667-42.667V170.666c0-25.6-17.067-42.667-42.667-42.667H213.333zm640 768H512c-25.6 0-42.667-17.067-42.667-42.667S486.4 810.666 512 810.666h341.333c25.6 0 42.667 17.067 42.667 42.667S878.933 896 853.333 896z"
    ></path>
</svg>